<svg width="100" height="100" viewBox="0 0 100 100" fill="none" xmlns="http://www.w3.org/2000/svg">
<rect width="100" height="100" rx="5" fill="#E2E6EC"/>
<path fill-rule="evenodd" clip-rule="evenodd" d="M28.6665 37C28.6665 34.6068 30.6066 32.6667 32.9998 32.6667H66.9998C69.3931 32.6667 71.3332 34.6068 71.3332 37V63.6667C71.3332 66.0599 69.3931 68 66.9998 68H32.9998C30.6066 68 28.6665 66.0599 28.6665 63.6667V37ZM32.9998 34.6667C31.7112 34.6667 30.6665 35.7113 30.6665 37V63.6667C30.6665 64.9553 31.7112 66 32.9998 66H66.9998C68.2885 66 69.3332 64.9553 69.3332 63.6667V37C69.3332 35.7113 68.2885 34.6667 66.9998 34.6667H32.9998Z" fill="#B2B9C4"/>
<ellipse cx="38.6663" cy="42" rx="4.33333" ry="4.33333" fill="#B2B9C4"/>
<path d="M34.333 60.3333V58.357C34.333 57.915 34.5086 57.4911 34.8212 57.1785L40.2093 51.7904C40.8384 51.1613 41.8506 51.1372 42.5089 51.7357L43.8402 52.9459C44.4918 53.5383 45.4918 53.5215 46.1232 52.9077L55.8214 43.4789C56.4748 42.8436 57.5173 42.8509 58.1617 43.4953L65.8449 51.1785C66.1574 51.4911 66.333 51.915 66.333 52.357V60.3333C66.333 61.2538 65.5868 62 64.6663 62H35.9997C35.0792 62 34.333 61.2538 34.333 60.3333Z" fill="#B2B9C4"/>
</svg>
