<svg width="23" height="23" viewBox="0 0 23 23" fill="none" xmlns="http://www.w3.org/2000/svg">
<path d="M15.9139 3.27637H6.55275C3.74441 3.27637 1.87219 4.68053 1.87219 7.95692V14.5097C1.87219 17.7861 3.74441 19.1903 6.55275 19.1903H15.9139C18.7222 19.1903 20.5944 17.7861 20.5944 14.5097V7.95692C20.5944 4.68053 18.7222 3.27637 15.9139 3.27637ZM16.3538 8.97728L13.4238 11.3176C12.806 11.8137 12.0196 12.0571 11.2333 12.0571C10.447 12.0571 9.65128 11.8137 9.0428 11.3176L6.11278 8.97728C5.81322 8.7339 5.76641 8.28456 6.00044 7.98501C6.24383 7.68545 6.6838 7.62928 6.98336 7.87267L9.91339 10.213C10.6248 10.784 11.8324 10.784 12.5439 10.213L15.4739 7.87267C15.7734 7.62928 16.2228 7.67609 16.4568 7.98501C16.7002 8.28456 16.6534 8.7339 16.3538 8.97728Z" fill="#A68B64"/>
</svg>
